<?xml version="1.0" encoding="UTF-8"?>
<svg width="179px" height="26px" viewBox="0 0 179 26" version="1.1" xmlns="http://www.w3.org/2000/svg" xmlns:xlink="http://www.w3.org/1999/xlink">
    <!-- Generator: Sketch 48.2 (47327) - http://www.bohemiancoding.com/sketch -->
    <title>WHACKATHON</title>
    <desc>Created with Sketch.</desc>
    <defs></defs>
    <g id="Artboard" stroke="none" stroke-width="1" fill="none" fill-rule="evenodd" transform="translate(-47.000000, -31.000000)">
        <path d="M70.91,33.11 C69.62,38.45 66.62,50.27 65.45,56 C65,56.03 64.67,56.03 64.4,56.03 C63.86,56.03 63.5,56 62.63,56 C62.03,54.02 60.05,45.35 59.69,43.79 C59.6,43.01 59.48,42.17 59.27,39.95 C59.27,40.76 59.15,41.81 58.85,43.49 C58.61,44.72 56.51,53.12 55.67,56.15 C55.04,56.06 53.78,56.06 53.09,56 C50.9,48.62 49.28,40.13 47.36,33.02 L50.93,32.06 L51.65,33.86 C53.18,37.67 54.35,44.48 54.8,46.79 C55.25,44.39 56,40.19 58.01,32.27 L60.8,32.18 C61.85,40.4 63.53,45.32 63.83,47.96 C64.43,44.75 66.11,36.29 67.37,32.12 L70.91,33.11 Z M87.6499999,55.79 L83.8699999,56 L83.8699999,45.02 C82.4599999,44.87 81.0499999,44.96 79.7899999,45.02 C79.7899999,46.16 79.7899999,47.54 79.8199999,49.13 C79.8499999,51.02 79.7899999,52.85 79.7899999,56 C79.3699999,56 78.5299999,55.97 77.5699999,55.97 C77.0899999,55.97 76.5799999,55.97 76.0999999,56 L75.8899999,35.42 L75.9199999,32.27 C76.9699999,32.27 78.4099999,31.97 79.4599999,31.97 L79.6099999,31.97 L79.7299999,41.15 C80.9599999,41.3 82.6699999,41.27 83.8099999,41.33 C84.0199999,38.48 83.6899999,33.68 83.6899999,31.97 C84.3799999,31.97 85.9999999,32.12 87.5299999,32.18 C87.6799999,36.26 87.7099999,40.28 87.7099999,44.36 C87.7099999,48.08 87.6799999,51.86 87.6499999,55.79 Z M107.33,56.06 L103.19,56.06 C102.71,54.71 102.44,52.58 102.08,51.05 C100.4,50.93 98.5999998,51.05 96.9199998,51.08 L95.6299998,56.06 C94.9099998,56.06 94.1599998,56 93.4399998,56 C93.0799998,56 92.7199998,56 92.3599998,56.06 L92.8699998,53.66 L97.6999998,32.18 L99.6799998,32.18 C100.22,32.18 100.79,32.18 101.21,32.15 C103.28,38.66 105.17,47.81 107.33,56.06 Z M101.3,47.51 C100.76,44.51 100.22,41.39 99.5299998,38.63 C98.7799998,41.63 97.8199998,47.54 97.8199998,47.54 L101.3,47.51 Z M120.98,56.18 L120.44,56.18 C118.25,56.18 113.21,56.03 112.34,52.43 C111.92,50.69 111.62,47.96 111.62,44.9 C111.62,42.38 111.83,39.62 112.28,36.95 C112.64,34.76 114.26,32.99 115.46,32.57 C116.45,32.21 118.07,32.06 119.69,32.06 C120.11,32.06 120.5,32.06 120.92,32.09 L120.83,35.51 C119.24,35.51 116.87,35.87 115.88,38.24 C115.46,42.68 115.28,44.84 115.58,48.92 C115.79,52.01 118.91,52.4 120.86,52.4 C120.95,53.21 121.01,53.96 121.01,54.92 C121.01,55.31 121.01,55.7 120.98,56.18 Z M139.55,56 L135.38,56 C134.06,52.04 132.8,49.16 132.02,46.52 C131.21,47.72 130.76,48.8 130.1,49.85 C130.01,51.23 130.37,52.94 130.22,56 L126.5,56 L126.5,32.09 L130.13,32.15 C130.07,34.97 129.98,40.16 130.1,43.16 C132.02,39.95 133.82,35.36 135.38,32.24 C136.13,32.21 136.85,32.15 137.6,32.15 C138.05,32.15 138.5,32.18 139.01,32.21 C138.11,35.21 135.59,40.19 134.33,42.98 C136.46,47.48 137.84,51.65 139.55,56 Z M157.01,55.85 C155.87,55.85 154.25,56.15 152.9,56.15 C152.42,54.8 152.33,51.74 151.97,50.21 C150.29,50.09 149.18,50.36 147.23,50.39 L145.58,56.36 C144.74,56.27 143.36,56 142.34,55.76 L142.85,53.66 L148.28,32.27 C148.79,32.27 149.81,32.3 151.13,32.3 C151.64,32.3 152.15,32.3 152.48,32.27 C154.31,39.77 155.27,48.47 157.01,55.85 Z M151.34,46.52 C150.8,43.52 150.68,41.36 150.26,37.28 C149.78,40.37 148.79,43.73 148.22,46.7 C149.39,46.67 150.2,46.52 151.34,46.52 Z M171.109999,35.72 C169.849999,35.75 167.989999,35.72 166.639999,35.78 C166.609999,38.75 166.759999,42.35 166.729999,46.01 C166.699999,48.98 167.059999,52.82 166.879999,56 L162.829999,56 L162.889999,55.16 C163.339999,48.65 162.979999,41.69 162.799999,35.72 C161.449999,35.63 160.069999,35.75 158.629999,35.75 C158.659999,35.18 158.689999,34.64 158.689999,34.19 C158.689999,33.65 158.659999,33.11 158.659999,32.33 C159.949999,32.27 161.299999,32.24 162.709999,32.24 C165.529999,32.24 168.469999,32.33 171.079999,32.33 C171.109999,32.93 171.109999,33.71 171.109999,35.72 Z M187.999999,55.79 L184.219999,56 L184.219999,45.02 C182.809999,44.87 181.399999,44.96 180.139999,45.02 C180.139999,46.16 180.139999,47.54 180.169999,49.13 C180.199999,51.02 180.139999,52.85 180.139999,56 C179.719999,56 178.879999,55.97 177.919999,55.97 C177.439999,55.97 176.929999,55.97 176.449999,56 L176.239999,35.42 L176.269999,32.27 C177.319999,32.27 178.759999,31.97 179.809999,31.97 L179.959999,31.97 L180.079999,41.15 C181.309999,41.3 183.019999,41.27 184.159999,41.33 C184.369999,38.48 184.039999,33.68 184.039999,31.97 C184.729999,31.97 186.349999,32.12 187.879999,32.18 C188.029999,36.26 188.059999,40.28 188.059999,44.36 C188.059999,48.08 188.029999,51.86 187.999999,55.79 Z M205.549999,37.04 C205.639999,39.62 205.819999,42.86 205.819999,45.89 C205.819999,49.52 205.579999,52.82 204.619999,54.23 C203.929999,55.22 203.359999,55.91 201.799999,56.51 C201.229999,56.51 200.599999,56.54 199.969999,56.54 C198.139999,56.54 196.219999,56.33 195.319999,54.86 C194.059999,52.85 194.089999,47.51 193.939999,43.55 C193.909999,42.17 193.789999,40.52 193.789999,38.93 C193.789999,36.26 194.119999,33.74 195.739999,32.87 C196.519999,32.45 198.169999,32.09 199.819999,32.09 C201.229999,32.09 202.669999,32.36 203.569999,33.05 C204.769999,34.01 205.489999,35.51 205.549999,37.04 Z M202.159999,50.57 C202.219999,46.58 202.249999,40.58 201.859999,36.83 C201.709999,35.51 200.389999,35.48 199.459999,35.54 C198.619999,35.78 197.989999,36.23 197.869999,37.13 C197.779999,42.38 197.989999,46.61 198.409999,51.65 C198.469999,52.49 199.279999,52.79 199.999999,52.79 C200.269999,52.79 200.539999,52.73 200.749999,52.67 C201.859999,52.58 202.159999,51.38 202.159999,50.57 Z M225.259999,32.27 C225.289999,33.38 225.289999,34.49 225.289999,35.6 C225.289999,41.51 224.989999,47.45 224.989999,53.78 L224.989999,56 C224.689999,56.03 224.329999,56.03 223.939999,56.03 C223.159999,56.03 222.319999,56 221.689999,56 C219.379999,51.71 217.399999,46.07 215.059999,41.51 C215.179999,45.89 215.209999,51.65 215.329999,56 L211.429999,55.85 C211.549999,47.36 211.489999,40.07 211.549999,32.15 L214.909999,31.97 C217.369999,36.86 219.169999,41.96 221.539999,47.15 L221.299999,32.27 L225.259999,32.27 Z" id="WHACKATHON" fill="#FFFFFF"></path>
    </g>
</svg>