<?xml version="1.0" encoding="UTF-8"?>
<svg width="182px" height="29px" viewBox="0 0 182 29" version="1.1" xmlns="http://www.w3.org/2000/svg" xmlns:xlink="http://www.w3.org/1999/xlink">
    <!-- Generator: Sketch 48.2 (47327) - http://www.bohemiancoding.com/sketch -->
    <title>WHACKATHON</title>
    <desc>Created with Sketch.</desc>
    <defs></defs>
    <g id="Artboard" stroke="none" stroke-width="1" fill="none" fill-rule="evenodd" transform="translate(-47.000000, -31.000000)">
        <path d="M58.712,40.256 C59.096,42.304 59.192,43.008 59.352,43.712 C59.704,45.248 61.432,53.696 62.008,55.488 C63.256,55.488 63.864,55.328 64.44,55.296 C65.592,49.92 68.344,38.368 69.592,33.536 L66.872,32.832 C65.88,36.8 63.832,44.576 63.096,47.712 C62.808,45.152 61.56,39.776 60.248,32.736 L57.496,32.864 C55.544,40.448 54.712,44.992 54.296,47.296 C53.656,44.48 51.992,37.728 51.224,34.432 L50.776,32.48 L48.056,33.248 C49.464,40.352 50.552,48.16 52.568,55.808 C52.952,55.872 54.712,55.936 55.32,56.032 C56.024,52.672 58.584,41.504 58.712,40.256 Z M54.776,33.312 C55.096,34.464 55.352,36.448 55.576,37.984 C55.736,36.672 55.992,36.352 56.984,32.192 L60.568,32 L63.864,33.312 C64.152,35.648 64.248,37.088 64.536,38.976 C64.984,36.864 65.816,33.632 66.328,31.968 L70.424,32.896 L72.408,34.656 C71.672,40.544 70.264,52.832 69.464,58.72 C69.272,58.72 68.984,58.752 68.632,58.752 C67.128,58.752 64.6,58.624 63.576,58.56 C62.936,57.792 61.976,56.768 61.368,55.968 C61.016,54.912 60.472,52.576 60.088,51.232 C59.864,53.6 59.64,55.648 59.288,59.232 C58.68,59.136 54.84,59.136 54.2,59.072 L51.928,56.32 C50.104,49.472 48.44,39.104 47.256,32.736 L50.84,31.744 L54.776,33.312 Z M78.2,46.176 C79.544,46.176 80.376,46.4 81.944,46.464 L82.072,55.68 C83.288,55.552 84.472,55.424 85.464,55.328 C85.304,47.328 85.112,39.776 84.888,32.576 C84.6,32.544 84.216,32.544 83.8,32.544 L81.912,32.544 C82.008,34.144 81.976,38.016 81.912,43.2 C80.6,43.072 79.192,43.104 77.88,43.008 L77.464,32.704 C76.44,32.704 75.416,32.8 74.52,32.864 L74.616,35.936 L75.288,55.936 C76.024,55.84 77.624,55.84 78.232,55.84 C78.328,52.352 78.392,47.264 78.2,46.176 Z M73.784,32.256 C74.424,32.128 76.44,32.032 77.784,32 C78.424,32.256 79.704,33.824 81.432,35.456 C81.336,34.496 81.4,32.864 81.4,31.84 C81.88,31.808 82.296,31.808 82.68,31.808 C84.248,31.808 85.144,31.968 85.72,32 C86.872,32.736 88.408,33.536 89.368,34.112 C89.24,42.08 89.176,50.656 88.824,58.656 L84.216,58.912 L82.264,56.864 L82.488,59.104 C81.272,59.104 77.56,59.232 76.248,59.264 L74.712,56.48 C74.232,48.576 73.848,38.912 73.784,32.256 Z M98.712,32.704 L98.296,32.704 C97.496,32.704 96.856,32.64 96.28,32.64 L95.864,32.64 L91.192,53.28 L90.808,55.552 L93.496,55.552 L94.744,50.976 C96.344,50.944 97.752,50.784 99.672,50.72 C100.056,52.224 100.536,54.336 100.792,55.648 C102.168,55.584 103.576,55.488 104.504,55.392 C102.424,47.456 100.632,38.816 98.712,32.704 Z M99,47.712 L95.416,48.192 C95.8,46.528 96.536,41.664 97.24,38.784 C97.88,41.44 98.552,44.416 99,47.712 Z M90.008,55.776 L95.288,31.808 C95.48,31.776 95.672,31.776 95.896,31.776 C96.856,31.776 98.136,32 99.192,32.032 C100.92,32.64 102.584,33.312 104.248,33.952 C105.528,41.184 106.488,48.064 108.248,58.688 L107.48,58.688 C105.72,58.688 102.872,58.752 101.816,58.752 L100.056,55.968 C99.864,55.136 99.608,53.984 99.448,53.28 L98.36,53.696 L97.336,59.008 C96.12,58.944 92.536,58.752 91.64,58.624 L90.008,55.776 Z M117.208,35.904 L117.176,32.48 C115.8,32.48 114.36,32.672 113.208,33.024 C111.416,33.6 110.104,35.008 109.848,36.32 C109.624,37.472 109.528,39.072 109.528,40.768 C109.528,45.088 110.136,50.304 110.904,52.416 C111.896,55.232 115.864,55.776 118.936,55.776 L119.224,55.776 C119.224,54.368 119.192,53.408 119.064,52.448 C115.608,52.576 113.304,52.096 113.112,49.12 C112.92,46.272 112.6,43.808 112.6,41.504 C112.6,40.416 112.664,39.36 112.856,38.304 C113.304,36.032 116.792,35.904 117.208,35.904 Z M121.72,59.104 L121.144,59.104 C114.296,59.104 110.872,56.352 109.88,51.552 C109.624,50.272 108.984,49.024 108.92,42.624 C108.92,41.76 108.888,40.928 108.888,40.192 C108.888,35.968 109.272,33.76 112.568,32.576 C113.912,32.096 115.288,31.84 116.568,31.84 C116.984,31.84 117.368,31.84 117.752,31.904 C118.392,32.224 121.016,32.832 121.656,33.248 C121.496,35.232 121.464,36.576 121.304,37.76 C118.872,38.08 117.304,37.792 117.144,40.992 C116.984,44.352 117.176,46.752 117.624,51.744 C118.328,51.84 119.064,51.84 119.64,51.84 C120.216,52.224 121.528,52.576 122.168,53.056 C122.136,54.4 121.848,57.344 121.72,59.104 Z M133.816,56.32 L136.6,54.816 C134.712,50.304 133.176,47.488 131.288,42.848 C132.536,40.128 134.584,35.808 135.8,32.832 C134.552,32.576 133.752,32.448 133.112,32.352 C131.64,35.296 129.304,40.768 127.48,43.904 C127.32,40.48 127.256,35.392 127.096,32.544 L124.184,32.608 L124.792,55.584 C125.848,55.744 127.096,55.776 127.928,55.84 C127.832,53.92 127.704,50.656 127.64,49.312 C128.28,48.288 128.664,47.328 129.368,46.08 C130.296,48.48 131.992,52.096 133.816,56.32 Z M131.352,52.896 L130.328,55.488 C130.328,56.256 130.424,57.536 130.36,58.656 C129.464,58.688 127.992,58.752 126.872,58.752 C126.52,58.752 126.232,58.72 125.976,58.72 L124.056,56.032 L123.544,31.872 L127.704,31.904 L130.264,33.376 C130.36,34.368 130.296,35.904 130.296,36.672 C130.968,35.232 131.768,33.216 132.664,31.584 C133.912,31.776 134.936,31.872 136.44,32.288 C137.112,32.48 138.168,32.8 139,33.312 C137.912,36.544 136.408,41.536 135.512,44.096 C137.016,48.224 138.392,51.968 140.216,57.44 L135.32,58.88 C134.648,58.24 133.816,57.6 133.24,56.928 C132.728,55.968 131.704,53.632 131.352,52.896 Z M141.336,55.36 C141.944,55.488 143.16,55.616 143.992,55.648 C144.408,54.336 145.048,52.576 145.4,51.168 C147.224,51.232 148.568,51.2 150.232,51.232 C150.488,52.224 150.936,54.24 151.32,55.776 C152.44,55.584 153.688,55.36 154.616,55.136 C152.888,47.424 151.896,38.688 150.488,32.576 C149.656,32.608 147.96,32.704 147.192,32.832 C145.24,40.352 143.192,47.68 141.336,55.36 Z M149.88,48.576 L146.072,48.352 C146.648,46.432 147.576,41.856 148.408,38.848 C148.984,41.92 149.304,44.896 149.88,48.576 Z M140.504,55.552 C142.552,47.328 144.408,39.968 146.68,32 C147.576,31.904 149.24,31.872 150.552,31.84 L155.32,33.056 C156.312,39.776 157.368,47.136 158.872,58.08 C156.472,58.336 153.656,58.976 152.344,58.976 L152.184,58.976 L150.552,56.128 C150.296,55.36 150.136,54.528 150.008,54.048 L148.216,54.208 L147.32,58.56 C145.912,58.72 143.224,58.912 141.816,58.944 L140.504,55.552 Z M164.6,55.712 L167.512,55.456 C167.512,51.936 167.352,48.544 167.224,45.696 C167.032,41.728 166.968,38.976 166.904,35.52 C168.216,35.456 170.008,35.456 171.032,35.36 C171.064,34.784 171.064,34.336 171.064,33.952 C171.064,33.12 171.032,32.672 171,32.352 C167.928,32.48 163.544,32.736 160.504,32.96 C160.504,33.536 160.568,34.816 160.568,35.776 C161.336,35.776 162.552,35.648 163.832,35.648 C164.088,42.176 164.312,49.024 164.6,55.712 Z M165.56,58.848 L163.96,56.32 C163.576,50.688 163.288,43.968 163.16,39.2 L161.176,39.072 C160.632,37.92 160.088,36.704 159.704,35.776 C159.704,34.848 159.768,33.088 159.8,32.32 C161.496,32 168.472,31.68 171.032,31.68 L171.352,31.68 C172.12,32.096 173.24,32.832 173.976,33.376 C173.944,34.528 173.816,36.864 173.688,39.296 L171.256,39.296 C171.128,41.536 171.224,43.648 171.224,47.168 C171.224,50.112 171.128,53.856 171.192,59.168 L165.56,58.848 Z M180.088,46.176 C181.432,46.176 182.264,46.4 183.832,46.464 L183.96,55.68 C185.176,55.552 186.36,55.424 187.352,55.328 C187.192,47.328 187,39.776 186.776,32.576 C186.488,32.544 186.104,32.544 185.688,32.544 L183.8,32.544 C183.896,34.144 183.864,38.016 183.8,43.2 C182.488,43.072 181.08,43.104 179.768,43.008 L179.352,32.704 C178.328,32.704 177.304,32.8 176.408,32.864 L176.504,35.936 L177.176,55.936 C177.912,55.84 179.512,55.84 180.12,55.84 C180.216,52.352 180.28,47.264 180.088,46.176 Z M175.672,32.256 C176.312,32.128 178.328,32.032 179.672,32 C180.312,32.256 181.592,33.824 183.32,35.456 C183.224,34.496 183.288,32.864 183.288,31.84 C183.768,31.808 184.184,31.808 184.568,31.808 C186.136,31.808 187.032,31.968 187.608,32 C188.76,32.736 190.296,33.536 191.256,34.112 C191.128,42.08 191.064,50.656 190.712,58.656 L186.104,58.912 L184.152,56.864 L184.376,59.104 C183.16,59.104 179.448,59.232 178.136,59.264 L176.6,56.48 C176.12,48.576 175.736,38.912 175.672,32.256 Z M203,53.952 C203.864,52.704 204.12,49.856 204.12,46.656 C204.12,43.296 203.832,39.552 203.704,36.768 C203.576,34.144 202.264,33.12 201.464,32.608 C200.92,32.256 200.088,32.128 199.192,32.128 C197.72,32.128 196.12,32.512 195.544,32.992 C194.104,33.952 193.784,36.128 193.784,38.496 C193.784,40 193.912,41.568 193.976,42.944 C194.136,46.784 194.36,51.584 195.128,53.792 C195.704,55.488 197.528,55.872 198.968,55.872 C199.352,55.872 199.704,55.84 200.024,55.808 C201.592,55.584 202.296,54.976 203,53.952 Z M200.152,36.544 C200.376,38.784 200.472,42.08 200.472,45.152 C200.472,47.008 200.44,48.8 200.408,50.272 C200.408,51.04 200.152,52.448 199.064,52.48 C198.232,52.512 197.752,52.224 197.656,51.104 C197.272,46.112 197.048,42.048 197.144,36.992 C197.272,36.128 197.624,35.744 198.424,35.36 C199.32,35.296 200.024,35.296 200.152,36.544 Z M194.936,55.2 C194.008,53.824 193.56,47.552 193.304,43.392 C193.208,41.728 193.112,40.192 193.112,38.848 C193.112,35.744 193.528,33.504 194.904,32.512 C195.544,32.064 196.728,31.456 198.648,31.456 C199.064,31.456 199.512,31.488 200.024,31.552 C202.424,31.904 208.088,33.408 208.184,37.728 C208.248,40.384 208.312,43.008 208.312,45.536 C208.312,48.736 208.216,51.776 207.864,54.624 C207.448,58.176 206.104,58.88 200.984,58.912 C199.864,58.912 196.376,57.344 194.936,55.2 Z M224.472,55.04 C224.152,47.712 223.928,39.552 223.64,32.576 L220.792,32.832 L220.952,47.36 C218.68,42.368 216.472,37.184 213.624,32.544 L211.192,32.928 L211.832,55.648 L215.32,56 C215.224,51.968 214.84,46.08 214.52,41.952 C216.92,46.368 219.448,51.296 221.752,55.424 C222.808,55.392 223.992,55.104 224.472,55.04 Z M228.248,33.472 C227.96,41.408 227.864,50.784 227.544,58.656 C225.656,58.816 223.992,58.816 222.776,58.912 C221.624,56.896 219.224,52.608 218.648,51.424 C218.776,54.368 218.84,57.376 218.84,58.496 L212.92,59.104 L211.256,56.16 L210.424,32.352 L214.072,31.808 L217.112,32.288 C218.008,33.984 219.224,36.32 220.12,38.24 L220.024,32.16 L224.536,31.872 C225.4,32.384 226.936,32.96 228.248,33.472 Z" id="WHACKATHON" fill="#000000"></path>
    </g>
</svg>